# xmcd
#
# Track frame offsets:
#	150
#	22392
#	46391
#	65057
#	82873
#	105449
#	120062
#	137813
#	158991
#	179933
#	198039
#	218915
#	233555
#	250497
#
# Disc length: 3584 seconds
#
# Revision: 0
# Processed by: cddbd v1.5.2PL0 Copyright (c) Steve Scherf et al.
# Submitted via: EasyCDDAExtractor 16.0.9.1
#
DISCID=c20dfe0e
DTITLE=Δέσποινα Βανδή - The Best Collection CD1
DYEAR=2008
DGENRE=Greek Pop - Pop-Folk - Rock
TTITLE0=Νυχτολούλουδό μου
TTITLE1=Υποφέρω
TTITLE2=Το κοριτσάκι σου
TTITLE3=Δεν είσαι εδώ
TTITLE4=Απόψε κλαίει ο ουρανός
TTITLE5=Δεν ανήκω σε κανέναν
TTITLE6=Ερείπιο
TTITLE7=Χωρίς εσένα
TTITLE8=Φύσα αγέρι
TTITLE9=Ξενοδοχείο
TTITLE10=Σπάνια
TTITLE11=Άσ' τους να λένε
TTITLE12=Σταμάτα να μου κολλάς
TTITLE13=Και τ' όνειρο έγινε εφιάλτης
EXTD=
EXTT0=
EXTT1=
EXTT2=
EXTT3=
EXTT4=
EXTT5=
EXTT6=
EXTT7=
EXTT8=
EXTT9=
EXTT10=
EXTT11=
EXTT12=
EXTT13=
PLAYORDER=
